<?xml version="1.0" encoding="UTF-8"?>
<svg version="1.1" xmlns="http://www.w3.org/2000/svg" width="216" height="216">
<path d="M0 0 C23.76 0 47.52 0 72 0 C72 3.96 72 7.92 72 12 C79.92 12 87.84 12 96 12 C96 15.96 96 19.92 96 24 C99.96 24 103.92 24 108 24 C108 31.92 108 39.84 108 48 C111.96 48 115.92 48 120 48 C120 71.76 120 95.52 120 120 C116.04 120 112.08 120 108 120 C108 116.04 108 112.08 108 108 C104.04 108 100.08 108 96 108 C96 104.04 96 100.08 96 96 C92.04 96 88.08 96 84 96 C84 84.12 84 72.24 84 60 C80.04 60 76.08 60 72 60 C72 63.96 72 67.92 72 72 C68.04 72 64.08 72 60 72 C60 75.96 60 79.92 60 84 C56.04 84 52.08 84 48 84 C48 87.96 48 91.92 48 96 C44.04 96 40.08 96 36 96 C36 99.96 36 103.92 36 108 C32.04 108 28.08 108 24 108 C24 111.96 24 115.92 24 120 C20.04 120 16.08 120 12 120 C12 123.96 12 127.92 12 132 C8.04 132 4.08 132 0 132 C0 135.96 0 139.92 0 144 C-3.96 144 -7.92 144 -12 144 C-12 147.96 -12 151.92 -12 156 C-19.92 156 -27.84 156 -36 156 C-36 148.08 -36 140.16 -36 132 C-32.04 132 -28.08 132 -24 132 C-24 128.04 -24 124.08 -24 120 C-20.04 120 -16.08 120 -12 120 C-12 116.04 -12 112.08 -12 108 C-8.04 108 -4.08 108 0 108 C0 104.04 0 100.08 0 96 C3.96 96 7.92 96 12 96 C12 92.04 12 88.08 12 84 C15.96 84 19.92 84 24 84 C24 80.04 24 76.08 24 72 C27.96 72 31.92 72 36 72 C36 68.04 36 64.08 36 60 C39.96 60 43.92 60 48 60 C48 56.04 48 52.08 48 48 C51.96 48 55.92 48 60 48 C60 44.04 60 40.08 60 36 C48.12 36 36.24 36 24 36 C24 32.04 24 28.08 24 24 C20.04 24 16.08 24 12 24 C12 20.04 12 16.08 12 12 C8.04 12 4.08 12 0 12 C0 8.04 0 4.08 0 0 Z " fill="#565556" transform="translate(72,36)"/>
<path d="M0 0 C7.92 0 15.84 0 24 0 C24 7.92 24 15.84 24 24 C20.04 24 16.08 24 12 24 C12 27.96 12 31.92 12 36 C8.04 36 4.08 36 0 36 C0 39.96 0 43.92 0 48 C-3.96 48 -7.92 48 -12 48 C-12 51.96 -12 55.92 -12 60 C-15.96 60 -19.92 60 -24 60 C-24 63.96 -24 67.92 -24 72 C-27.96 72 -31.92 72 -36 72 C-36 75.96 -36 79.92 -36 84 C-39.96 84 -43.92 84 -48 84 C-48 87.96 -48 91.92 -48 96 C-51.96 96 -55.92 96 -60 96 C-60 99.96 -60 103.92 -60 108 C-63.96 108 -67.92 108 -72 108 C-72 111.96 -72 115.92 -72 120 C-79.92 120 -87.84 120 -96 120 C-96 112.08 -96 104.16 -96 96 C-92.04 96 -88.08 96 -84 96 C-84 92.04 -84 88.08 -84 84 C-80.04 84 -76.08 84 -72 84 C-72 80.04 -72 76.08 -72 72 C-68.04 72 -64.08 72 -60 72 C-60 68.04 -60 64.08 -60 60 C-56.04 60 -52.08 60 -48 60 C-48 56.04 -48 52.08 -48 48 C-44.04 48 -40.08 48 -36 48 C-36 44.04 -36 40.08 -36 36 C-32.04 36 -28.08 36 -24 36 C-24 32.04 -24 28.08 -24 24 C-20.04 24 -16.08 24 -12 24 C-12 20.04 -12 16.08 -12 12 C-8.04 12 -4.08 12 0 12 C0 8.04 0 4.08 0 0 Z " fill="#635231" transform="translate(132,72)"/>
<path d="M0 0 C3.96 0 7.92 0 12 0 C12 7.92 12 15.84 12 24 C15.96 24 19.92 24 24 24 C24 47.76 24 71.52 24 96 C20.04 96 16.08 96 12 96 C12 92.04 12 88.08 12 84 C8.04 84 4.08 84 0 84 C0 80.04 0 76.08 0 72 C-3.96 72 -7.92 72 -12 72 C-12 56.16 -12 40.32 -12 24 C-8.04 24 -4.08 24 0 24 C0 16.08 0 8.16 0 0 Z " fill="#565556" transform="translate(168,60)"/>
<path d="M0 0 C3.96 0 7.92 0 12 0 C12 3.96 12 7.92 12 12 C15.96 12 19.92 12 24 12 C24 15.96 24 19.92 24 24 C20.04 24 16.08 24 12 24 C12 27.96 12 31.92 12 36 C8.04 36 4.08 36 0 36 C0 39.96 0 43.92 0 48 C-3.96 48 -7.92 48 -12 48 C-12 51.96 -12 55.92 -12 60 C-19.92 60 -27.84 60 -36 60 C-36 52.08 -36 44.16 -36 36 C-32.04 36 -28.08 36 -24 36 C-24 32.04 -24 28.08 -24 24 C-20.04 24 -16.08 24 -12 24 C-12 20.04 -12 16.08 -12 12 C-8.04 12 -4.08 12 0 12 C0 8.04 0 4.08 0 0 Z " fill="#876321" transform="translate(72,132)"/>
<path d="M0 0 C3.96 0 7.92 0 12 0 C12 23.76 12 47.52 12 72 C8.04 72 4.08 72 0 72 C0 68.04 0 64.08 0 60 C-3.96 60 -7.92 60 -12 60 C-12 56.04 -12 52.08 -12 48 C-8.04 48 -4.08 48 0 48 C0 32.16 0 16.32 0 0 Z " fill="#212121" transform="translate(180,84)"/>
<path d="M0 0 C23.76 0 47.52 0 72 0 C72 3.96 72 7.92 72 12 C56.16 12 40.32 12 24 12 C24 15.96 24 19.92 24 24 C20.04 24 16.08 24 12 24 C12 20.04 12 16.08 12 12 C8.04 12 4.08 12 0 12 C0 8.04 0 4.08 0 0 Z " fill="#212121" transform="translate(72,36)"/>
<path d="M0 0 C3.96 0 7.92 0 12 0 C12 3.96 12 7.92 12 12 C15.96 12 19.92 12 24 12 C24 15.96 24 19.92 24 24 C20.04 24 16.08 24 12 24 C12 27.96 12 31.92 12 36 C8.04 36 4.08 36 0 36 C0 32.04 0 28.08 0 24 C-3.96 24 -7.92 24 -12 24 C-12 20.04 -12 16.08 -12 12 C-8.04 12 -4.08 12 0 12 C0 8.04 0 4.08 0 0 Z " fill="#635232" transform="translate(72,132)"/>
<path d="M0 0 C7.92 0 15.84 0 24 0 C24 7.92 24 15.84 24 24 C16.08 24 8.16 24 0 24 C0 16.08 0 8.16 0 0 Z " fill="#805D1E" transform="translate(84,120)"/>
<path d="M0 0 C3.96 0 7.92 0 12 0 C12 3.96 12 7.92 12 12 C15.96 12 19.92 12 24 12 C24 15.96 24 19.92 24 24 C16.08 24 8.16 24 0 24 C0 16.08 0 8.16 0 0 Z " fill="#1E170B" transform="translate(36,168)"/>
<path d="M0 0 C3.96 0 7.92 0 12 0 C12 11.88 12 23.76 12 36 C8.04 36 4.08 36 0 36 C0 24.12 0 12.24 0 0 Z " fill="#212121" transform="translate(156,96)"/>
<path d="M0 0 C7.92 0 15.84 0 24 0 C24 7.92 24 15.84 24 24 C20.04 24 16.08 24 12 24 C12 20.04 12 16.08 12 12 C8.04 12 4.08 12 0 12 C0 8.04 0 4.08 0 0 Z " fill="#525151" transform="translate(132,72)"/>
<path d="M0 0 C11.88 0 23.76 0 36 0 C36 3.96 36 7.92 36 12 C24.12 12 12.24 12 0 12 C0 8.04 0 4.08 0 0 Z " fill="#212121" transform="translate(96,60)"/>
<path d="M0 0 C3.96 0 7.92 0 12 0 C12 7.92 12 15.84 12 24 C8.04 24 4.08 24 0 24 C0 16.08 0 8.16 0 0 Z " fill="#5A5A5A" transform="translate(156,60)"/>
<path d="M0 0 C3.96 0 7.92 0 12 0 C12 7.92 12 15.84 12 24 C8.04 24 4.08 24 0 24 C0 16.08 0 8.16 0 0 Z " fill="#212121" transform="translate(168,60)"/>
<path d="M0 0 C7.92 0 15.84 0 24 0 C24 3.96 24 7.92 24 12 C16.08 12 8.16 12 0 12 C0 8.04 0 4.08 0 0 Z " fill="#212121" transform="translate(144,48)"/>
<path d="M0 0 C7.92 0 15.84 0 24 0 C24 3.96 24 7.92 24 12 C16.08 12 8.16 12 0 12 C0 8.04 0 4.08 0 0 Z " fill="#5A5A5A" transform="translate(96,48)"/>
<path d="M0 0 C3.96 0 7.92 0 12 0 C12 3.96 12 7.92 12 12 C8.04 12 4.08 12 0 12 C0 8.04 0 4.08 0 0 Z " fill="#1C170A" transform="translate(60,168)"/>
<path d="M0 0 C3.96 0 7.92 0 12 0 C12 3.96 12 7.92 12 12 C8.04 12 4.08 12 0 12 C0 8.04 0 4.08 0 0 Z " fill="#876321" transform="translate(48,168)"/>
<path d="M0 0 C3.96 0 7.92 0 12 0 C12 3.96 12 7.92 12 12 C8.04 12 4.08 12 0 12 C0 8.04 0 4.08 0 0 Z " fill="#1C1609" transform="translate(72,156)"/>
<path d="M0 0 C3.96 0 7.92 0 12 0 C12 3.96 12 7.92 12 12 C8.04 12 4.08 12 0 12 C0 8.04 0 4.08 0 0 Z " fill="#211A0B" transform="translate(48,156)"/>
<path d="M0 0 C3.96 0 7.92 0 12 0 C12 3.96 12 7.92 12 12 C8.04 12 4.08 12 0 12 C0 8.04 0 4.08 0 0 Z " fill="#1C170A" transform="translate(84,144)"/>
<path d="M0 0 C3.96 0 7.92 0 12 0 C12 3.96 12 7.92 12 12 C8.04 12 4.08 12 0 12 C0 8.04 0 4.08 0 0 Z " fill="#201A0C" transform="translate(60,144)"/>
<path d="M0 0 C3.96 0 7.92 0 12 0 C12 3.96 12 7.92 12 12 C8.04 12 4.08 12 0 12 C0 8.04 0 4.08 0 0 Z " fill="#1C1709" transform="translate(96,132)"/>
<path d="M0 0 C3.96 0 7.92 0 12 0 C12 3.96 12 7.92 12 12 C8.04 12 4.08 12 0 12 C0 8.04 0 4.08 0 0 Z " fill="#876320" transform="translate(84,132)"/>
<path d="M0 0 C3.96 0 7.92 0 12 0 C12 3.96 12 7.92 12 12 C8.04 12 4.08 12 0 12 C0 8.04 0 4.08 0 0 Z " fill="#211A0C" transform="translate(72,132)"/>
<path d="M0 0 C3.96 0 7.92 0 12 0 C12 3.96 12 7.92 12 12 C8.04 12 4.08 12 0 12 C0 8.04 0 4.08 0 0 Z " fill="#686868" transform="translate(168,120)"/>
<path d="M0 0 C3.96 0 7.92 0 12 0 C12 3.96 12 7.92 12 12 C8.04 12 4.08 12 0 12 C0 8.04 0 4.08 0 0 Z " fill="#1C170A" transform="translate(108,120)"/>
<path d="M0 0 C3.96 0 7.92 0 12 0 C12 3.96 12 7.92 12 12 C8.04 12 4.08 12 0 12 C0 8.04 0 4.08 0 0 Z " fill="#211A0B" transform="translate(84,120)"/>
<path d="M0 0 C3.96 0 7.92 0 12 0 C12 3.96 12 7.92 12 12 C8.04 12 4.08 12 0 12 C0 8.04 0 4.08 0 0 Z " fill="#5A5A5A" transform="translate(168,108)"/>
<path d="M0 0 C3.96 0 7.92 0 12 0 C12 3.96 12 7.92 12 12 C8.04 12 4.08 12 0 12 C0 8.04 0 4.08 0 0 Z " fill="#1C160A" transform="translate(120,108)"/>
<path d="M0 0 C3.96 0 7.92 0 12 0 C12 3.96 12 7.92 12 12 C8.04 12 4.08 12 0 12 C0 8.04 0 4.08 0 0 Z " fill="#201A0C" transform="translate(96,108)"/>
<path d="M0 0 C3.96 0 7.92 0 12 0 C12 3.96 12 7.92 12 12 C8.04 12 4.08 12 0 12 C0 8.04 0 4.08 0 0 Z " fill="#1C170A" transform="translate(132,96)"/>
<path d="M0 0 C3.96 0 7.92 0 12 0 C12 3.96 12 7.92 12 12 C8.04 12 4.08 12 0 12 C0 8.04 0 4.08 0 0 Z " fill="#211A0D" transform="translate(108,96)"/>
<path d="M0 0 C3.96 0 7.92 0 12 0 C12 3.96 12 7.92 12 12 C8.04 12 4.08 12 0 12 C0 8.04 0 4.08 0 0 Z " fill="#876321" transform="translate(132,84)"/>
<path d="M0 0 C3.96 0 7.92 0 12 0 C12 3.96 12 7.92 12 12 C8.04 12 4.08 12 0 12 C0 8.04 0 4.08 0 0 Z " fill="#525152" transform="translate(156,84)"/>
<path d="M0 0 C3.96 0 7.92 0 12 0 C12 3.96 12 7.92 12 12 C8.04 12 4.08 12 0 12 C0 8.04 0 4.08 0 0 Z " fill="#21201F" transform="translate(144,84)"/>
<path d="M0 0 C3.96 0 7.92 0 12 0 C12 3.96 12 7.92 12 12 C8.04 12 4.08 12 0 12 C0 8.04 0 4.08 0 0 Z " fill="#21190C" transform="translate(120,84)"/>
<path d="M0 0 C3.96 0 7.92 0 12 0 C12 3.96 12 7.92 12 12 C8.04 12 4.08 12 0 12 C0 8.04 0 4.08 0 0 Z " fill="#21201F" transform="translate(132,72)"/>
<path d="M0 0 C3.96 0 7.92 0 12 0 C12 3.96 12 7.92 12 12 C8.04 12 4.08 12 0 12 C0 8.04 0 4.08 0 0 Z " fill="#686868" transform="translate(156,60)"/>
<path d="M0 0 C3.96 0 7.92 0 12 0 C12 3.96 12 7.92 12 12 C8.04 12 4.08 12 0 12 C0 8.04 0 4.08 0 0 Z " fill="#5A5A5A" transform="translate(144,60)"/>
<path d="M0 0 C3.96 0 7.92 0 12 0 C12 3.96 12 7.92 12 12 C8.04 12 4.08 12 0 12 C0 8.04 0 4.08 0 0 Z " fill="#525152" transform="translate(120,48)"/>
<path d="M0 0 C3.96 0 7.92 0 12 0 C12 3.96 12 7.92 12 12 C8.04 12 4.08 12 0 12 C0 8.04 0 4.08 0 0 Z " fill="#686868" transform="translate(96,48)"/>
</svg>
